# xmcd
#
# Track frame offsets:
#	150
#	521
#	17186
#	35562
#	50407
#	68595
#	87827
#	109071
#	132527
#	159776
#	176050
#	200610
#	222245
#	247140
#
# Disc length: 3524 seconds
#
# Revision: 0
# Processed by: cddbd v1.5.2PL0 Copyright (c) Steve Scherf et al.
# Submitted via: audiograbber 1.83.01
#
DISCID=be0dc20e
DTITLE=Buddaheads - Mumbo Jumbo
DYEAR=2004
DGENRE=
TTITLE0=Intro
TTITLE1=All night long
TTITLE2=Mumbo Jumbo
TTITLE3=Hurricane
TTITLE4=Hold on
TTITLE5=For to long
TTITLE6=Wine, women and workin'
TTITLE7=Mood for love
TTITLE8=Tupelo honey
TTITLE9=Show down
TTITLE10=Amen
TTITLE11=Sooner or later
TTITLE12=Jeff and his little buddies
TTITLE13=Don't cry
EXTD=
EXTT0=
EXTT1=
EXTT2=
EXTT3=
EXTT4=
EXTT5=
EXTT6=
EXTT7=
EXTT8=
EXTT9=
EXTT10=
EXTT11=
EXTT12=
EXTT13=
PLAYORDER=
